# Blender v2.91.0 OBJ File: ''
# www.blender.org
mtllib Belt1Straight.mtl
o Roller_Cylinder.002
v -0.000000 0.187500 0.312500
v -0.000000 0.187500 -0.312500
v 0.031250 0.195873 0.312500
v 0.031250 0.195873 -0.312500
v 0.054127 0.218750 0.312500
v 0.054127 0.218750 -0.312500
v 0.062500 0.250000 0.312500
v 0.062500 0.250000 -0.312500
v 0.054127 0.281250 0.312500
v 0.054127 0.281250 -0.312500
v 0.031250 0.304127 0.312500
v 0.031250 0.304127 -0.312500
v 0.000000 0.312500 0.312500
v 0.000000 0.312500 -0.312500
v -0.031250 0.304127 0.312500
v -0.031250 0.304127 -0.312500
v -0.054127 0.281250 0.312500
v -0.054127 0.281250 -0.312500
v -0.062500 0.250000 0.312500
v -0.062500 0.250000 -0.312500
v -0.054127 0.218750 0.312500
v -0.054127 0.218750 -0.312500
v -0.031250 0.195873 0.312500
v -0.031250 0.195873 -0.312500
v -0.000000 0.150000 0.375000
v 0.050000 0.163397 0.375000
v 0.086603 0.200000 0.375000
v 0.100000 0.250000 0.375000
v 0.086603 0.300000 0.375000
v 0.050000 0.336602 0.375000
v 0.000000 0.350000 0.375000
v -0.050000 0.336603 0.375000
v -0.086603 0.300000 0.375000
v -0.100000 0.250000 0.375000
v -0.086603 0.200000 0.375000
v -0.050000 0.163397 0.375000
v -0.000000 0.150000 0.437500
v 0.050000 0.163397 0.437500
v 0.086603 0.200000 0.437500
v 0.100000 0.250000 0.437500
v 0.086603 0.300000 0.437500
v 0.050000 0.336602 0.437500
v 0.000000 0.350000 0.437500
v -0.050000 0.336603 0.437500
v -0.086603 0.300000 0.437500
v -0.100000 0.250000 0.437500
v -0.086603 0.200000 0.437500
v -0.050000 0.163397 0.437500
v 0.050000 0.163397 -0.375000
v -0.000000 0.150000 -0.375000
v 0.086603 0.200000 -0.375000
v 0.100000 0.250000 -0.375000
v 0.086603 0.300000 -0.375000
v 0.050000 0.336603 -0.375000
v 0.000000 0.350000 -0.375000
v -0.050000 0.336603 -0.375000
v -0.086603 0.300000 -0.375000
v -0.100000 0.250000 -0.375000
v -0.086603 0.200000 -0.375000
v -0.050000 0.163398 -0.375000
v 0.050000 0.163397 -0.437500
v -0.000000 0.150000 -0.437500
v 0.086603 0.200000 -0.437500
v 0.100000 0.250000 -0.437500
v 0.086603 0.300000 -0.437500
v 0.050000 0.336603 -0.437500
v 0.000000 0.350000 -0.437500
v -0.050000 0.336603 -0.437500
v -0.086603 0.300000 -0.437500
v -0.100000 0.250000 -0.437500
v -0.086603 0.200000 -0.437500
v -0.050000 0.163398 -0.437500
vt 1.000000 0.500000
vt 1.000000 1.000000
vt 0.916667 1.000000
vt 0.916667 0.500000
vt 0.833333 1.000000
vt 0.833333 0.500000
vt 0.750000 1.000000
vt 0.750000 0.500000
vt 0.666667 1.000000
vt 0.666667 0.500000
vt 0.583333 1.000000
vt 0.583333 0.500000
vt 0.500000 1.000000
vt 0.500000 0.500000
vt 0.416667 1.000000
vt 0.416667 0.500000
vt 0.333333 1.000000
vt 0.333333 0.500000
vt 0.250000 1.000000
vt 0.250000 0.500000
vt 0.166667 1.000000
vt 0.166667 0.500000
vt 0.750000 1.000000
vt 0.666667 1.000000
vt 0.083333 1.000000
vt 0.083333 0.500000
vt 0.000000 1.000000
vt 0.000000 0.500000
vt 0.833333 0.500000
vt 0.916667 0.500000
vt 0.750000 0.500000
vt 0.750000 0.500000
vt 0.833333 0.500000
vt 0.166667 0.500000
vt 0.250000 0.500000
vt 0.333333 0.500000
vt 0.416667 0.500000
vt 0.500000 0.500000
vt 0.583333 0.500000
vt 0.666667 0.500000
vt 0.000000 0.500000
vt 0.083333 0.500000
vt 1.000000 0.500000
vt 0.750000 0.490000
vt 0.870000 0.457846
vt 0.957846 0.370000
vt 0.990000 0.250000
vt 0.957846 0.130000
vt 0.870000 0.042154
vt 0.750000 0.010000
vt 0.630000 0.042154
vt 0.542154 0.130000
vt 0.510000 0.250000
vt 0.542154 0.370000
vt 0.630000 0.457846
vt 0.166667 0.500000
vt 0.250000 0.500000
vt 0.416667 0.500000
vt 0.500000 0.500000
vt 0.666667 0.500000
vt 0.083333 0.500000
vt 0.916667 0.500000
vt 1.000000 0.500000
vt 0.333333 0.500000
vt 0.583333 0.500000
vt 0.000000 0.500000
vt 0.500000 1.000000
vt 0.583333 1.000000
vt 0.583333 1.000000
vt 0.500000 1.000000
vt 0.083333 1.000000
vt 0.000000 1.000000
vt 1.000000 1.000000
vt 0.916667 1.000000
vt 0.833333 1.000000
vt 0.166667 1.000000
vt 0.250000 1.000000
vt 0.333333 1.000000
vt 0.416667 1.000000
vt 0.370000 0.457846
vt 0.250000 0.490000
vt 0.130000 0.457846
vt 0.042154 0.370000
vt 0.010000 0.250000
vt 0.042154 0.130000
vt 0.130000 0.042154
vt 0.250000 0.010000
vt 0.370000 0.042154
vt 0.457846 0.130000
vt 0.490000 0.250000
vt 0.457846 0.370000
vt 0.833333 1.000000
vt 0.750000 1.000000
vt 0.250000 1.000000
vt 0.166667 1.000000
vt 0.416667 1.000000
vt 0.666667 1.000000
vt 0.083333 1.000000
vt 1.000000 1.000000
vt 0.916667 1.000000
vt 0.333333 1.000000
vt 0.000000 1.000000
vn 0.2588 -0.9659 -0.0000
vn 0.7071 -0.7071 -0.0000
vn 0.9659 -0.2588 -0.0000
vn 0.9659 0.2588 0.0000
vn 0.7071 0.7071 0.0000
vn 0.2588 0.9659 0.0000
vn -0.2588 0.9659 0.0000
vn -0.7071 0.7071 0.0000
vn -0.9659 0.2588 0.0000
vn -0.9659 -0.2588 -0.0000
vn 0.8357 0.2239 0.5014
vn -0.7071 -0.7071 -0.0000
vn -0.2588 -0.9659 -0.0000
vn 0.6118 -0.6118 -0.5014
vn -0.8357 -0.2239 -0.5014
vn -0.8357 0.2239 -0.5014
vn -0.6118 0.6118 -0.5014
vn -0.2239 0.8357 -0.5014
vn 0.2239 0.8357 -0.5014
vn 0.6118 0.6118 -0.5014
vn 0.8357 0.2239 -0.5014
vn -0.2239 -0.8357 -0.5014
vn 0.2239 -0.8357 -0.5014
vn 0.8357 -0.2239 -0.5014
vn -0.6118 -0.6118 -0.5014
vn 0.0000 0.0000 1.0000
vn -0.2239 -0.8357 0.5014
vn 0.2239 -0.8357 0.5014
vn 0.8357 -0.2239 0.5014
vn -0.6118 -0.6118 0.5014
vn 0.6118 -0.6118 0.5014
vn -0.8357 -0.2239 0.5014
vn -0.8357 0.2239 0.5014
vn -0.6118 0.6118 0.5014
vn -0.2239 0.8357 0.5014
vn 0.2239 0.8357 0.5014
vn 0.6118 0.6118 0.5014
vn 0.0000 0.0000 -1.0000
usemtl None
s off
f 1/1/1 2/2/1 4/3/1 3/4/1
f 3/4/2 4/3/2 6/5/2 5/6/2
f 5/6/3 6/5/3 8/7/3 7/8/3
f 7/8/4 8/7/4 10/9/4 9/10/4
f 9/10/5 10/9/5 12/11/5 11/12/5
f 11/12/6 12/11/6 14/13/6 13/14/6
f 13/14/7 14/13/7 16/15/7 15/16/7
f 15/16/8 16/15/8 18/17/8 17/18/8
f 17/18/9 18/17/9 20/19/9 19/20/9
f 19/20/10 20/19/10 22/21/10 21/22/10
f 10/9/11 8/7/11 52/23/11 53/24/11
f 21/22/12 22/21/12 24/25/12 23/26/12
f 23/26/13 24/25/13 2/27/13 1/28/13
f 3/4/14 5/6/14 27/29/14 26/30/14
f 27/29/3 28/31/3 40/32/3 39/33/3
f 19/20/15 21/22/15 35/34/15 34/35/15
f 17/18/16 19/20/16 34/35/16 33/36/16
f 15/16/17 17/18/17 33/36/17 32/37/17
f 13/14/18 15/16/18 32/37/18 31/38/18
f 11/12/19 13/14/19 31/38/19 30/39/19
f 9/10/20 11/12/20 30/39/20 29/40/20
f 7/8/21 9/10/21 29/40/21 28/31/21
f 23/26/22 1/28/22 25/41/22 36/42/22
f 1/1/23 3/4/23 26/30/23 25/43/23
f 5/6/24 7/8/24 28/31/24 27/29/24
f 21/22/25 23/26/25 36/42/25 35/34/25
f 37/44/26 38/45/26 39/46/26 40/47/26 41/48/26 42/49/26 43/50/26 44/51/26 45/52/26 46/53/26 47/54/26 48/55/26
f 34/35/10 35/34/10 47/56/10 46/57/10
f 31/38/7 32/37/7 44/58/7 43/59/7
f 28/31/4 29/40/4 41/60/4 40/32/4
f 35/34/12 36/42/12 48/61/12 47/56/12
f 25/43/1 26/30/1 38/62/1 37/63/1
f 32/37/8 33/36/8 45/64/8 44/58/8
f 29/40/5 30/39/5 42/65/5 41/60/5
f 36/42/13 25/41/13 37/66/13 48/61/13
f 26/30/2 27/29/2 39/33/2 38/62/2
f 33/36/9 34/35/9 46/57/9 45/64/9
f 30/39/6 31/38/6 43/59/6 42/65/6
f 55/67/6 54/68/6 66/69/6 67/70/6
f 2/27/27 24/25/27 60/71/27 50/72/27
f 4/3/28 2/2/28 50/73/28 49/74/28
f 8/7/29 6/5/29 51/75/29 52/23/29
f 24/25/30 22/21/30 59/76/30 60/71/30
f 6/5/31 4/3/31 49/74/31 51/75/31
f 22/21/32 20/19/32 58/77/32 59/76/32
f 20/19/33 18/17/33 57/78/33 58/77/33
f 18/17/34 16/15/34 56/79/34 57/78/34
f 16/15/35 14/13/35 55/67/35 56/79/35
f 14/13/36 12/11/36 54/68/36 55/67/36
f 12/11/37 10/9/37 53/24/37 54/68/37
f 61/80/38 62/81/38 72/82/38 71/83/38 70/84/38 69/85/38 68/86/38 67/87/38 66/88/38 65/89/38 64/90/38 63/91/38
f 52/23/3 51/75/3 63/92/3 64/93/3
f 59/76/10 58/77/10 70/94/10 71/95/10
f 56/79/7 55/67/7 67/70/7 68/96/7
f 53/24/4 52/23/4 64/93/4 65/97/4
f 60/71/12 59/76/12 71/95/12 72/98/12
f 49/74/1 50/73/1 62/99/1 61/100/1
f 57/78/8 56/79/8 68/96/8 69/101/8
f 54/68/5 53/24/5 65/97/5 66/69/5
f 50/72/13 60/71/13 72/98/13 62/102/13
f 51/75/2 49/74/2 61/100/2 63/92/2
f 58/77/9 57/78/9 69/101/9 70/94/9
o BeltTop_Cylinder.003
v -0.500000 0.319192 0.312500
v -0.500000 0.336579 0.312500
v -0.500000 0.319192 -0.312500
v -0.500000 0.336579 -0.312500
v 0.500000 0.319192 0.312500
v 0.500000 0.336579 0.312500
v 0.500000 0.319192 -0.312500
v 0.500000 0.336579 -0.312500
v -0.500000 0.374273 -0.375000
v -0.500000 0.356886 -0.375000
v 0.500000 0.356886 -0.375000
v 0.500000 0.374273 -0.375000
v -0.500000 0.356608 0.375000
v -0.500000 0.373995 0.375000
v 0.500000 0.373995 0.375000
v 0.500000 0.356608 0.375000
v -0.500000 0.356608 0.406250
v -0.500000 0.373995 0.406250
v 0.500000 0.373995 0.406250
v 0.500000 0.356608 0.406250
v -0.500000 0.374273 -0.407150
v -0.500000 0.356886 -0.407150
v 0.500000 0.356886 -0.407150
v 0.500000 0.374273 -0.407150
v -0.500000 0.338195 -0.312500
v 0.500000 0.338195 -0.312500
vt 0.375000 0.000000
vt 0.625000 0.000000
vt 0.625000 0.250000
vt 0.375000 0.250000
vt 0.375000 0.500000
vt 0.625000 0.500000
vt 0.625000 0.750000
vt 0.375000 0.750000
vt 0.875000 0.750000
vt 0.875000 0.750000
vt 0.625000 0.750000
vt 0.125000 0.500000
vt 0.125000 0.750000
vt 0.875000 0.500000
vt 0.875000 0.500000
vt 0.625000 0.500000
vt 0.625000 0.500000
vt 0.875000 0.500000
vt 0.625000 0.250000
vt 0.375000 0.250000
vt 0.375000 0.500000
vt 0.125000 0.500000
vt 0.125000 0.750000
vt 0.375000 0.750000
vt 0.375000 0.750000
vt 0.125000 0.750000
vt 0.375000 0.000000
vt 0.625000 0.000000
vt 0.625000 0.750000
vt 0.625000 1.000000
vt 0.375000 1.000000
vt 0.375000 0.000000
vt 0.625000 0.000000
vt 0.875000 0.750000
vt 0.375000 0.250000
vt 0.625000 0.250000
vt 0.375000 0.500000
vt 0.125000 0.500000
vt 0.000000 0.000000
vt 0.000000 0.000000
vt 0.000000 0.000000
vt 0.625000 0.500000
vt 0.875000 0.500000
vt 0.000000 0.000000
vn -1.0000 0.0000 0.0000
vn 1.0000 0.0000 0.0000
vn 0.0000 0.8580 -0.5136
vn -0.0000 -1.0000 0.0000
vn 0.0000 1.0000 -0.0000
vn -0.0000 -0.8563 -0.5164
vn 0.0000 -0.8580 0.5136
vn 0.0000 0.0000 1.0000
vn 0.0000 0.0000 -1.0000
vn 0.0000 0.8661 0.4999
usemtl None
s off
f 73/103/39 74/104/39 76/105/39 75/106/39
f 79/107/40 80/108/40 78/109/40 77/110/40
f 78/109/41 74/111/41 86/112/41 87/113/41
f 75/114/42 79/107/42 77/110/42 73/115/42
f 80/108/43 76/116/43 74/111/43 78/109/43
f 81/117/43 84/118/43 96/119/43 93/120/43
f 75/106/39 76/105/39 81/121/39 82/122/39
f 80/108/40 79/107/40 83/123/40 84/118/40
f 79/107/44 75/114/44 82/124/44 83/123/44
f 85/125/42 88/126/42 92/127/42 89/128/42
f 77/110/40 78/109/40 87/113/40 88/126/40
f 74/104/39 73/103/39 85/129/39 86/130/39
f 73/115/45 77/110/45 88/126/45 85/125/45
f 92/127/46 91/131/46 90/132/46 89/133/46
f 86/130/39 85/129/39 89/134/39 90/135/39
f 87/113/43 86/112/43 90/136/43 91/131/43
f 88/126/40 87/113/40 91/131/40 92/127/40
f 94/137/47 93/138/47 96/119/47 95/139/47
f 82/122/39 81/121/39 93/138/39 94/137/39
f 84/118/40 83/123/40 95/139/40 96/119/40
f 83/123/42 82/124/42 94/140/42 95/139/42
f 84/141/48 97/142/48 98/143/48
f 76/116/46 80/108/46 98/144/46 97/145/46
f 81/146/48 97/142/48 84/141/48
o Legs_Cylinder.007
v 0.039062 0.000000 0.492160
v 0.039062 0.300000 0.492160
v 0.039062 0.000000 0.445299
v 0.039062 0.300000 0.445299
v -0.039062 0.000000 0.492160
v -0.039062 0.300000 0.492160
v -0.039062 0.000000 0.445299
v -0.039062 0.300000 0.445299
v 0.039063 0.000000 -0.437500
v 0.039063 0.300000 -0.437500
v 0.039063 0.000000 -0.484362
v 0.039063 0.300000 -0.484361
v -0.039062 0.000000 -0.437500
v -0.039062 0.300000 -0.437500
v -0.039062 0.000000 -0.484362
v -0.039062 0.300000 -0.484361
vt 0.375000 0.000000
vt 0.375000 0.250000
vt 0.625000 0.250000
vt 0.625000 0.000000
vt 0.375000 0.500000
vt 0.625000 0.500000
vt 0.375000 0.750000
vt 0.625000 0.750000
vt 0.375000 1.000000
vt 0.625000 1.000000
vt 0.125000 0.500000
vt 0.125000 0.750000
vt 0.875000 0.750000
vt 0.875000 0.500000
vt 0.375000 0.000000
vt 0.375000 0.250000
vt 0.625000 0.250000
vt 0.625000 0.000000
vt 0.375000 0.500000
vt 0.625000 0.500000
vt 0.375000 0.750000
vt 0.625000 0.750000
vt 0.375000 1.000000
vt 0.625000 1.000000
vt 0.125000 0.500000
vt 0.125000 0.750000
vt 0.875000 0.750000
vt 0.875000 0.500000
vn 1.0000 0.0000 0.0000
vn 0.0000 0.0000 -1.0000
vn -1.0000 0.0000 0.0000
vn 0.0000 -0.0000 1.0000
vn 0.0000 -1.0000 0.0000
vn 0.0000 1.0000 0.0000
usemtl None
s off
f 99/147/49 101/148/49 102/149/49 100/150/49
f 101/148/50 105/151/50 106/152/50 102/149/50
f 105/151/51 103/153/51 104/154/51 106/152/51
f 103/153/52 99/155/52 100/156/52 104/154/52
f 101/157/53 99/158/53 103/153/53 105/151/53
f 106/152/54 104/154/54 100/159/54 102/160/54
f 107/161/49 109/162/49 110/163/49 108/164/49
f 109/162/50 113/165/50 114/166/50 110/163/50
f 113/165/51 111/167/51 112/168/51 114/166/51
f 111/167/52 107/169/52 108/170/52 112/168/52
f 109/171/53 107/172/53 111/167/53 113/165/53
f 114/166/54 112/168/54 108/173/54 110/174/54
o BeltTop.001_Cylinder.008
v -0.500000 0.193147 -0.312800
v -0.500000 0.175760 -0.312800
v -0.500000 0.193147 0.312200
v -0.500000 0.175760 0.312200
v 0.500000 0.193147 -0.312800
v 0.500000 0.175760 -0.312800
v 0.500000 0.193147 0.312200
v 0.500000 0.175760 0.312200
v -0.500000 0.138066 0.374700
v -0.500000 0.155453 0.374700
v 0.500000 0.155453 0.374700
v 0.500000 0.138066 0.374700
v -0.500000 0.155731 -0.375300
v -0.500000 0.138344 -0.375300
v 0.500000 0.138344 -0.375300
v 0.500000 0.155731 -0.375300
v -0.500000 0.155731 -0.406550
v -0.500000 0.138344 -0.406550
v 0.500000 0.138344 -0.406550
v 0.500000 0.155731 -0.406550
v -0.500000 0.138066 0.406850
v -0.500000 0.155453 0.406850
v 0.500000 0.155453 0.406850
v 0.500000 0.138066 0.406850
v -0.500000 0.174144 0.312200
v 0.500000 0.174144 0.312200
vt 0.375000 0.000000
vt 0.625000 0.000000
vt 0.625000 0.250000
vt 0.375000 0.250000
vt 0.375000 0.500000
vt 0.625000 0.500000
vt 0.625000 0.750000
vt 0.375000 0.750000
vt 0.875000 0.750000
vt 0.875000 0.750000
vt 0.625000 0.750000
vt 0.125000 0.500000
vt 0.125000 0.750000
vt 0.875000 0.500000
vt 0.875000 0.500000
vt 0.625000 0.500000
vt 0.625000 0.500000
vt 0.875000 0.500000
vt 0.625000 0.250000
vt 0.375000 0.250000
vt 0.375000 0.500000
vt 0.125000 0.500000
vt 0.125000 0.750000
vt 0.375000 0.750000
vt 0.375000 0.750000
vt 0.125000 0.750000
vt 0.375000 0.000000
vt 0.625000 0.000000
vt 0.625000 0.750000
vt 0.625000 1.000000
vt 0.375000 1.000000
vt 0.375000 0.000000
vt 0.625000 0.000000
vt 0.875000 0.750000
vt 0.375000 0.250000
vt 0.625000 0.250000
vt 0.375000 0.500000
vt 0.125000 0.500000
vt 0.000000 0.000000
vt 0.000000 0.000000
vt 0.000000 0.000000
vt 0.625000 0.500000
vt 0.875000 0.500000
vt 0.000000 0.000000
vn -1.0000 0.0000 0.0000
vn 1.0000 0.0000 0.0000
vn 0.0000 -0.8580 0.5136
vn -0.0000 1.0000 -0.0000
vn 0.0000 -1.0000 0.0000
vn -0.0000 0.8563 0.5164
vn 0.0000 0.8580 -0.5136
vn 0.0000 0.0000 -1.0000
vn -0.0000 0.0000 1.0000
vn 0.0000 -0.8661 -0.4999
usemtl None
s off
f 115/175/55 116/176/55 118/177/55 117/178/55
f 121/179/56 122/180/56 120/181/56 119/182/56
f 120/181/57 116/183/57 128/184/57 129/185/57
f 117/186/58 121/179/58 119/182/58 115/187/58
f 122/180/59 118/188/59 116/183/59 120/181/59
f 123/189/59 126/190/59 138/191/59 135/192/59
f 117/178/55 118/177/55 123/193/55 124/194/55
f 122/180/56 121/179/56 125/195/56 126/190/56
f 121/179/60 117/186/60 124/196/60 125/195/60
f 127/197/58 130/198/58 134/199/58 131/200/58
f 119/182/56 120/181/56 129/185/56 130/198/56
f 116/176/55 115/175/55 127/201/55 128/202/55
f 115/187/61 119/182/61 130/198/61 127/197/61
f 134/199/62 133/203/62 132/204/62 131/205/62
f 128/202/55 127/201/55 131/206/55 132/207/55
f 129/185/59 128/184/59 132/208/59 133/203/59
f 130/198/56 129/185/56 133/203/56 134/199/56
f 136/209/63 135/210/63 138/191/63 137/211/63
f 124/194/55 123/193/55 135/210/55 136/209/55
f 126/190/56 125/195/56 137/211/56 138/191/56
f 125/195/58 124/196/58 136/212/58 137/211/58
f 126/213/64 139/214/64 140/215/64
f 118/188/62 122/180/62 140/216/62 139/217/62
f 123/218/64 139/214/64 126/213/64
